# xmcd
#
# Track frame offsets:
#  150
#  20875
#  31085
#  33320
#  44938
#  55847
#  66992
#  90574
#  145851
#  169770
#  207559
#  218732
#  234529
#  236269
#  243805
#  250438
#  262351
#  285679
#
# Disc length: 4400 seconds
#
# Revision: 0
# Processed by: cddbd v1.5.1PL2 Copyright (c) Steve Scherf et al.
# Submitted via: Collectorz.com_Music_Collector 6.9
#
DISCID=12112e12
DTITLE=Rush - St. Louis '80 Remaster
DYEAR=1980
DGENRE=Progressive Rock
TTITLE0=2112: Overture
TTITLE1=The Temples Of Syrinx
TTITLE2=Discovery
TTITLE3=Presentation
TTITLE4=Soliloquy
TTITLE5=Grand Finale
TTITLE6=By-Tor And The Snow Dog
TTITLE7=Xanadu
TTITLE8=The Spirit Of Radio
TTITLE9=Natural Science
TTITLE10=Beneath, Between, Behind
TTITLE11=Working Man
TTITLE12=Finding My Way Intro
TTITLE13=Anthem
TTITLE14=Bastille Day
TTITLE15=In The Mood
TTITLE16=Drum Solo
TTITLE17=La Villa Strangiato
EXTD=
EXTT0=
EXTT1=
EXTT2=
EXTT3=
EXTT4=
EXTT5=
EXTT6=
EXTT7=
EXTT8=
EXTT9=
EXTT10=
EXTT11=
EXTT12=
EXTT13=
EXTT14=
EXTT15=
EXTT16=
EXTT17=
PLAYORDER=
